<?xml version="1.0" encoding="utf-8"?>
<!-- Generator: Adobe Illustrator 25.4.1, SVG Export Plug-In . SVG Version: 6.00 Build 0)  -->
<svg version="1.1" xmlns="http://www.w3.org/2000/svg" xmlns:xlink="http://www.w3.org/1999/xlink" x="0px" y="0px"
	 viewBox="0 0 500 500" style="enable-background:new 0 0 500 500;" xml:space="preserve">
<style type="text/css">
	.st0{fill:#FF9100;}
</style>
<g id="BACKGROUND">
</g>
<g id="OBJECTS">
	<g>
		<g>
			<path class="st0" d="M195.6,316.7c16,4.3,50.6,13.4,71.6,18.3L195.6,316.7z"/>
			<path class="st0" d="M308.7,181.4l-87.4-22.1c-0.4-0.1-0.8-0.2-1.2-0.2c-1.8,0-3.5,1-4.4,2.6c-1.5,2.9,0.1,6.5,3.3,7.2l76.9,17.9
				c2.9,0.7,3.5,4.4,1,6l-3.2,2c-6,3.7-13.2,4.8-20.1,3.1l-79.8-20.1c-3.5-0.9-7,1.8-7,5.4v123.9c0,4.2,2.8,7.9,6.9,9l1.8,0.5
				l71.6,18.3l0.4,0.1l19.7,5.1c13.1,3.4,25.8-6.5,25.8-20.1V187.2C313.1,184.5,311.3,182.1,308.7,181.4z M247.1,244.2l0-3.9l0-2.6
				c0-5.9,5.5-10.2,11.2-8.8l0,0l4.1,1v0l4.1,1c4.1,1,7,4.7,7,8.9l0,6.9l0,3.9l0,2.6c0,5.9-5.5,10.2-11.2,8.8l-4.1-1v0l-4.2-1
				c-4.1-1-7-4.7-7-8.9L247.1,244.2z M221.2,278.4c0-5.9,5.5-10.2,11.2-8.9l4.8,1.1c4.1,1,7,4.6,7,8.9l0,21.9
				c0,5.9-5.5,10.2-11.2,8.9l-4.8-1.1c-4.1-1-7-4.6-7-8.9L221.2,278.4z M193.7,240.1l0.1-6.9l0-3.9l0-2.6c0-5.9,5.5-10.2,11.2-8.8
				l4.1,1l4.1,1c4.1,1,7,4.7,7,8.9l0,6.9l0,3.9l0,2.6c0,5.9-5.5,10.2-11.2,8.8l-4.1-1l-4.1-1C196.6,248,193.7,244.4,193.7,240.1z"/>
		</g>
	</g>
</g>
</svg>
